<?xml version="1.0" encoding="utf-8"?>
<!-- Generator: Adobe Illustrator 16.0.0, SVG Export Plug-In . SVG Version: 6.00 Build 0)  -->
<!DOCTYPE svg PUBLIC "-//W3C//DTD SVG 1.1//EN" "http://www.w3.org/Graphics/SVG/1.1/DTD/svg11.dtd">
<svg version="1.1" xmlns="http://www.w3.org/2000/svg" xmlns:xlink="http://www.w3.org/1999/xlink" x="0px" y="0px" width="1080px"
	 height="1080px" viewBox="0 0 1080 1080" enable-background="new 0 0 1080 1080" xml:space="preserve">
<g id="Layer_1" display="none">
	<g display="inline">
		<defs>
			<polygon id="SVGID_1_" points="254.39,595.524 153.887,595.524 163.051,574.033 254.39,574.033 			"/>
		</defs>
		<clipPath id="SVGID_2_">
			<use xlink:href="#SVGID_1_"  overflow="visible"/>
		</clipPath>
		
			<linearGradient id="SVGID_3_" gradientUnits="userSpaceOnUse" x1="0" y1="1080" x2="1" y2="1080" gradientTransform="matrix(100.5026 0 0 -100.5026 153.875 109127.5547)">
			<stop  offset="0" style="stop-color:#5140F2"/>
			<stop  offset="1" style="stop-color:#291771"/>
		</linearGradient>
		<rect x="153.887" y="574.033" clip-path="url(#SVGID_2_)" fill="url(#SVGID_3_)" width="100.503" height="21.491"/>
	</g>
	<g display="inline">
		<defs>
			<polygon id="SVGID_4_" points="269.469,562.34 181.042,562.34 191.393,540.849 260.685,540.849 			"/>
		</defs>
		<clipPath id="SVGID_5_">
			<use xlink:href="#SVGID_4_"  overflow="visible"/>
		</clipPath>
		
			<linearGradient id="SVGID_6_" gradientUnits="userSpaceOnUse" x1="0" y1="1080" x2="1" y2="1080" gradientTransform="matrix(88.4269 0 0 -88.4269 181.0625 96052.6484)">
			<stop  offset="0" style="stop-color:#5140F2"/>
			<stop  offset="1" style="stop-color:#291771"/>
		</linearGradient>
		<rect x="181.042" y="540.849" clip-path="url(#SVGID_5_)" fill="url(#SVGID_6_)" width="88.427" height="21.491"/>
	</g>
	<g display="inline">
		<defs>
			<rect id="SVGID_7_" width="1080" height="1080"/>
		</defs>
		<clipPath id="SVGID_8_">
			<use xlink:href="#SVGID_7_"  overflow="visible"/>
		</clipPath>
		<path clip-path="url(#SVGID_8_)" fill="#5140F2" d="M331.04,597.566c-8.853,0-16.987-1.057-24.406-3.166
			c-7.423-2.109-13.653-5.07-18.688-8.884l7.149-17.156c5.173,3.542,10.891,6.265,17.155,8.169
			c6.262,1.909,12.593,2.859,18.994,2.859c6.807,0,11.878-1.155,15.216-3.472c3.335-2.313,5.004-5.444,5.004-9.395
			c0-3.131-1.057-5.617-3.166-7.455c-2.112-1.838-5.483-3.231-10.11-4.187L317.765,551c-8.715-1.905-15.353-5.173-19.913-9.803
			c-4.564-4.628-6.842-10.688-6.842-18.178c0-6.397,1.736-12.05,5.208-16.951c3.471-4.901,8.44-8.747,14.909-11.539
			c6.465-2.789,14.057-4.188,22.772-4.188c7.623,0,14.807,1.022,21.547,3.064c6.74,2.043,12.423,5.106,17.054,9.191l-7.353,16.543
			c-4.221-3.402-9.056-6.056-14.501-7.966c-5.447-1.904-10.757-2.858-15.93-2.858c-7.081,0-12.254,1.26-15.522,3.778
			c-3.267,2.521-4.901,5.753-4.901,9.702c0,2.996,0.985,5.482,2.961,7.454c1.973,1.975,5.071,3.44,9.293,4.391l20.424,3.88
			c9.12,1.772,16.032,4.87,20.729,9.293c4.697,4.426,7.046,10.451,7.046,18.075c0,6.81-1.838,12.662-5.514,17.563
			c-3.676,4.902-8.782,8.648-15.318,11.233C347.378,596.271,339.751,597.566,331.04,597.566"/>
		<path clip-path="url(#SVGID_8_)" fill="#5140F2" d="M439.693,597.566c-12.254,0-21.515-3.198-27.775-9.6
			c-6.265-6.398-9.396-15.997-9.396-28.797v-47.586h-19.81v-19.199h19.81v-26.346l25.529-6.535v32.881h27.573v19.199h-27.573v45.953
			c0,7.081,1.361,12.05,4.085,14.909c2.723,2.859,6.466,4.289,11.234,4.289c2.585,0,4.8-0.205,6.637-0.613
			c1.838-0.408,3.641-0.951,5.413-1.634v20.22c-2.318,0.95-4.871,1.665-7.66,2.145C444.968,597.327,442.278,597.566,439.693,597.566
			"/>
		<path clip-path="url(#SVGID_8_)" fill="#5140F2" d="M472.779,595.523v-76.792c0-4.356-0.102-8.782-0.306-13.275
			c-0.204-4.494-0.581-8.85-1.123-13.072h24.712l2.86,28.185h-4.085c1.359-6.807,3.641-12.459,6.841-16.952
			c3.199-4.493,7.114-7.827,11.745-10.007c4.627-2.177,9.666-3.269,15.113-3.269c2.451,0,4.423,0.103,5.923,0.307
			c1.497,0.204,2.993,0.581,4.493,1.123l-0.204,22.467c-2.588-1.089-4.8-1.769-6.638-2.043c-1.838-0.272-4.12-0.408-6.842-0.408
			c-5.856,0-10.793,1.225-14.807,3.675c-4.018,2.452-7.014,5.857-8.987,10.212c-1.974,4.36-2.961,9.328-2.961,14.91v54.939H472.779z
			"/>
		<path clip-path="url(#SVGID_8_)" fill="#5140F2" d="M592.054,597.566c-8.987,0-16.885-2.145-23.692-6.434
			c-6.809-4.289-12.119-10.448-15.931-18.483c-3.813-8.032-5.718-17.632-5.718-28.798c0-11.163,1.904-20.729,5.718-28.694
			c3.812-7.966,9.122-14.093,15.931-18.382c6.808-4.289,14.705-6.433,23.692-6.433c8.711,0,16.371,2.144,22.976,6.433
			c6.604,4.289,10.993,10.043,13.174,17.258h-2.246l2.246-21.648h24.509c-0.409,4.221-0.785,8.511-1.123,12.866
			c-0.342,4.359-0.511,8.648-0.511,12.867v77.405h-25.325l-0.205-21.24h2.451c-2.181,7.081-6.606,12.732-13.276,16.951
			C608.051,595.457,600.494,597.566,592.054,597.566 M599.202,577.959c8.031,0,14.501-2.824,19.401-8.476
			c4.902-5.648,7.354-14.194,7.354-25.632c0-11.437-2.451-19.944-7.354-25.529c-4.9-5.581-11.37-8.373-19.401-8.373
			c-8.036,0-14.501,2.792-19.402,8.373c-4.903,5.585-7.354,14.093-7.354,25.529c0,11.438,2.415,19.983,7.25,25.632
			C584.528,575.135,591.031,577.959,599.202,577.959"/>
		<path clip-path="url(#SVGID_8_)" fill="#5140F2" d="M722.967,597.566c-12.254,0-21.516-3.198-27.775-9.6
			c-6.266-6.398-9.396-15.997-9.396-28.797v-47.586h-19.811v-19.199h19.811v-26.346l25.529-6.535v32.881h27.573v19.199h-27.573
			v45.953c0,7.081,1.36,12.05,4.085,14.909c2.722,2.859,6.465,4.289,11.233,4.289c2.585,0,4.8-0.205,6.637-0.613
			c1.838-0.408,3.642-0.951,5.413-1.634v20.22c-2.317,0.95-4.87,1.665-7.659,2.145C728.241,597.327,725.553,597.566,722.967,597.566
			"/>
		<path clip-path="url(#SVGID_8_)" fill="#5140F2" d="M794.654,597.566c-12.255,0-21.517-3.198-27.776-9.6
			c-6.265-6.398-9.396-15.997-9.396-28.797v-47.586h-19.811v-19.199h19.811v-26.346l25.529-6.535v32.881h27.573v19.199h-27.573
			v45.953c0,7.081,1.36,12.05,4.085,14.909c2.722,2.859,6.465,4.289,11.233,4.289c2.585,0,4.8-0.205,6.637-0.613
			c1.838-0.408,3.642-0.951,5.413-1.634v20.22c-2.317,0.95-4.87,1.665-7.659,2.145C799.928,597.327,797.238,597.566,794.654,597.566
			"/>
		<path clip-path="url(#SVGID_8_)" fill="#5140F2" d="M867.77,597.566c-8.987,0-16.884-2.145-23.692-6.434
			s-12.12-10.448-15.93-18.483c-3.813-8.032-5.718-17.632-5.718-28.798c0-11.163,1.904-20.729,5.718-28.694
			c3.81-7.966,9.121-14.093,15.93-18.382s14.705-6.433,23.692-6.433c8.711,0,16.371,2.144,22.976,6.433
			c6.604,4.289,10.994,10.043,13.175,17.258h-2.247l2.247-21.648h24.508c-0.408,4.221-0.785,8.511-1.123,12.866
			c-0.342,4.359-0.512,8.648-0.512,12.867v77.405h-25.324l-0.204-21.24h2.451c-2.181,7.081-6.607,12.732-13.276,16.951
			C883.768,595.457,876.211,597.566,867.77,597.566 M874.918,577.959c8.031,0,14.5-2.824,19.401-8.476
			c4.903-5.648,7.354-14.194,7.354-25.632c0-11.437-2.45-19.944-7.354-25.529c-4.901-5.581-11.37-8.373-19.401-8.373
			c-8.035,0-14.502,2.792-19.402,8.373c-4.902,5.585-7.354,14.093-7.354,25.529c0,11.438,2.416,19.983,7.251,25.632
			C860.244,575.135,866.748,577.959,874.918,577.959"/>
		<path clip-path="url(#SVGID_8_)" fill="#595959" d="M748.208,644.663l16.038-36.354h3.713l16.295,36.354h-4.434l-4.539-10.365
			l1.909,1.083h-22.227l2.063-1.083l-4.436,10.365H748.208z M766.051,613.207l-8.354,19.596l-1.238-0.928h19.184l-0.929,0.928
			l-8.56-19.596H766.051z"/>
		<path clip-path="url(#SVGID_8_)" fill="#595959" d="M800.395,656.163c-2.234,0-4.298-0.275-6.188-0.824
			c-1.892-0.552-3.593-1.394-5.106-2.528l1.238-3.146c1.066,0.757,2.115,1.358,3.146,1.806c1.031,0.446,2.098,0.781,3.197,1.005
			c1.101,0.224,2.27,0.335,3.507,0.335c2.543,0,4.469-0.67,5.775-2.011c1.306-1.341,1.959-3.249,1.959-5.724v-7.581h0.516
			c-0.55,2.029-1.684,3.636-3.402,4.822c-1.721,1.187-3.731,1.778-6.033,1.778c-2.373,0-4.427-0.523-6.163-1.572
			s-3.077-2.544-4.021-4.486c-0.946-1.942-1.419-4.236-1.419-6.885c0-2.612,0.473-4.881,1.419-6.807
			c0.944-1.924,2.285-3.411,4.021-4.461c1.736-1.047,3.79-1.572,6.163-1.572c2.337,0,4.356,0.585,6.059,1.753
			c1.701,1.169,2.827,2.785,3.377,4.848l-0.516-0.516l0.465-5.621h4.074c-0.138,0.998-0.242,2.003-0.31,3.017
			c-0.069,1.015-0.104,2.004-0.104,2.966v19.75c0,3.85-0.989,6.755-2.965,8.715C807.106,655.183,804.211,656.163,800.395,656.163
			 M799.775,640.692c2.51,0,4.486-0.833,5.932-2.501c1.442-1.667,2.165-4.013,2.165-7.039c0-3.023-0.723-5.362-2.165-7.013
			c-1.445-1.65-3.422-2.476-5.932-2.476c-2.476,0-4.451,0.825-5.93,2.476s-2.217,3.989-2.217,7.013c0,3.026,0.738,5.372,2.217,7.039
			C795.324,639.859,797.3,640.692,799.775,640.692"/>
		<path clip-path="url(#SVGID_8_)" fill="#595959" d="M831.592,645.127c-4.057,0-7.254-1.177-9.591-3.532
			c-2.339-2.354-3.507-5.629-3.507-9.822c0-2.717,0.516-5.08,1.547-7.092c1.031-2.011,2.477-3.574,4.332-4.692
			c1.857-1.116,3.988-1.675,6.395-1.675c2.372,0,4.365,0.499,5.981,1.494c1.615,0.998,2.854,2.416,3.713,4.256
			c0.859,1.838,1.289,4.013,1.289,6.521v1.548h-20.059v-2.63h17.326l-0.876,0.67c0-2.75-0.619-4.898-1.857-6.446
			c-1.238-1.547-3.077-2.32-5.518-2.32c-2.578,0-4.589,0.902-6.033,2.707c-1.444,1.806-2.166,4.238-2.166,7.297v0.465
			c0,3.231,0.799,5.681,2.397,7.348c1.6,1.668,3.843,2.501,6.73,2.501c1.546,0,2.999-0.231,4.357-0.695
			c1.356-0.464,2.654-1.229,3.893-2.295l1.444,2.939c-1.135,1.101-2.57,1.951-4.307,2.552
			C835.349,644.826,833.518,645.127,831.592,645.127"/>
		<path clip-path="url(#SVGID_8_)" fill="#595959" d="M848.145,644.663v-19.904c0-0.963-0.043-1.95-0.129-2.966
			c-0.086-1.014-0.18-2.019-0.282-3.017h4.021l0.517,5.673h-0.619c0.756-1.994,1.968-3.515,3.636-4.564
			c1.667-1.048,3.6-1.572,5.8-1.572c3.061,0,5.371,0.817,6.938,2.449c1.563,1.634,2.346,4.203,2.346,7.709v16.192h-4.177v-15.934
			c0-2.441-0.49-4.22-1.471-5.337c-0.979-1.117-2.501-1.677-4.563-1.677c-2.408,0-4.315,0.739-5.724,2.219
			c-1.41,1.478-2.114,3.454-2.114,5.929v14.8H848.145z"/>
		<path clip-path="url(#SVGID_8_)" fill="#595959" d="M889.244,645.127c-2.545,0-4.753-0.549-6.627-1.648
			c-1.874-1.101-3.316-2.664-4.33-4.694c-1.016-2.027-1.521-4.435-1.521-7.219c0-2.818,0.515-5.217,1.546-7.194
			c1.032-1.975,2.484-3.48,4.358-4.512c1.873-1.031,4.064-1.546,6.574-1.546c1.649,0,3.258,0.292,4.821,0.877
			c1.564,0.584,2.863,1.408,3.895,2.474l-1.496,2.991c-1.032-0.997-2.157-1.735-3.377-2.217c-1.222-0.481-2.416-0.723-3.584-0.723
			c-2.683,0-4.763,0.843-6.24,2.526c-1.479,1.686-2.217,4.144-2.217,7.375c0,3.197,0.737,5.672,2.217,7.426
			c1.478,1.753,3.558,2.63,6.24,2.63c1.134,0,2.311-0.224,3.531-0.671c1.221-0.446,2.363-1.186,3.43-2.218l1.496,2.939
			c-1.067,1.101-2.391,1.943-3.972,2.527C892.406,644.835,890.824,645.127,889.244,645.127"/>
		<path clip-path="url(#SVGID_8_)" fill="#595959" d="M903.064,656.369l-0.979-3.455c1.615-0.379,2.964-0.817,4.047-1.314
			c1.083-0.499,1.986-1.161,2.707-1.985c0.724-0.825,1.341-1.856,1.857-3.095l1.341-3.042l-0.104,1.753l-11.294-26.454h4.538
			l9.334,22.741h-1.341l9.231-22.741h4.384l-11.964,28.053c-0.689,1.65-1.445,3.033-2.271,4.151
			c-0.825,1.116-1.71,2.028-2.655,2.733c-0.945,0.704-1.984,1.263-3.119,1.677C905.642,655.802,904.405,656.128,903.064,656.369"/>
	</g>
	<g display="inline">
		<defs>
			<polygon id="SVGID_9_" points="176.537,458.402 139.319,537.641 166.921,537.641 204.139,458.402 			"/>
		</defs>
		<clipPath id="SVGID_10_">
			<use xlink:href="#SVGID_9_"  overflow="visible"/>
		</clipPath>
		
			<linearGradient id="SVGID_11_" gradientUnits="userSpaceOnUse" x1="-4.882813e-004" y1="1079.999" x2="0.9995" y2="1079.999" gradientTransform="matrix(64.819 0 0 -64.819 139.3125 70502.4688)">
			<stop  offset="0" style="stop-color:#5140F2"/>
			<stop  offset="1" style="stop-color:#291771"/>
		</linearGradient>
		<rect x="139.319" y="458.402" clip-path="url(#SVGID_10_)" fill="url(#SVGID_11_)" width="64.82" height="79.239"/>
	</g>
	<g display="inline">
		<defs>
			<polygon id="SVGID_12_" points="177.464,458.402 241.868,595.524 269.469,595.524 205.065,458.402 			"/>
		</defs>
		<clipPath id="SVGID_13_">
			<use xlink:href="#SVGID_12_"  overflow="visible"/>
		</clipPath>
		
			<linearGradient id="SVGID_14_" gradientUnits="userSpaceOnUse" x1="0" y1="1080" x2="1" y2="1080" gradientTransform="matrix(92.0055 0 0 -92.0055 177.4375 99892.9063)">
			<stop  offset="0" style="stop-color:#5140F2"/>
			<stop  offset="1" style="stop-color:#5140F2"/>
		</linearGradient>
		<rect x="177.464" y="458.402" clip-path="url(#SVGID_13_)" fill="url(#SVGID_14_)" width="92.005" height="137.123"/>
	</g>
	<g display="inline">
		<defs>
			<polygon id="SVGID_15_" points="215.832,595.524 244.534,595.524 269.469,562.341 260.684,540.85 			"/>
		</defs>
		<clipPath id="SVGID_16_">
			<use xlink:href="#SVGID_15_"  overflow="visible"/>
		</clipPath>
		
			<linearGradient id="SVGID_17_" gradientUnits="userSpaceOnUse" x1="0" y1="1080" x2="1" y2="1080" gradientTransform="matrix(53.6373 0 0 -53.6373 215.8438 58496.4531)">
			<stop  offset="0" style="stop-color:#5140F2"/>
			<stop  offset="1" style="stop-color:#2929A3"/>
		</linearGradient>
		<rect x="215.832" y="540.85" clip-path="url(#SVGID_16_)" fill="url(#SVGID_17_)" width="53.637" height="54.675"/>
	</g>
</g>
<g id="Layer_2">
	<g>
		<defs>
			<polygon id="SVGID_18_" points="927.621,1074.021 146.381,1074.021 217.609,906.955 927.621,906.955 			"/>
		</defs>
		<clipPath id="SVGID_19_">
			<use xlink:href="#SVGID_18_"  overflow="visible"/>
		</clipPath>
		
			<linearGradient id="SVGID_20_" gradientUnits="userSpaceOnUse" x1="-0.0747" y1="1075.9629" x2="7.6987" y2="1075.9629" gradientTransform="matrix(100.5026 0 0 -100.5026 153.875 109127.5547)">
			<stop  offset="0" style="stop-color:#5140F2"/>
			<stop  offset="1" style="stop-color:#291771"/>
		</linearGradient>
		<rect x="146.381" y="906.955" clip-path="url(#SVGID_19_)" fill="url(#SVGID_20_)" width="781.24" height="167.065"/>
	</g>
	<g>
		<defs>
			<polygon id="SVGID_21_" points="1044.836,816.06 357.461,816.06 437.928,649.006 976.559,649.006 			"/>
		</defs>
		<clipPath id="SVGID_22_">
			<use xlink:href="#SVGID_21_"  overflow="visible"/>
		</clipPath>
		
			<linearGradient id="SVGID_23_" gradientUnits="userSpaceOnUse" x1="1.9951" y1="1077.9551" x2="9.7686" y2="1077.9551" gradientTransform="matrix(88.4269 0 0 -88.4269 181.0625 96052.6484)">
			<stop  offset="0" style="stop-color:#5140F2"/>
			<stop  offset="1" style="stop-color:#291771"/>
		</linearGradient>
		<rect x="357.461" y="649.006" clip-path="url(#SVGID_22_)" fill="url(#SVGID_23_)" width="687.375" height="167.054"/>
	</g>
	<g>
		<defs>
			<polygon id="SVGID_24_" points="322.443,8.117 33.136,624.063 247.693,624.063 537.008,8.117 			"/>
		</defs>
		<clipPath id="SVGID_25_">
			<use xlink:href="#SVGID_24_"  overflow="visible"/>
		</clipPath>
		
			<linearGradient id="SVGID_26_" gradientUnits="userSpaceOnUse" x1="-1.6387" y1="1082.8066" x2="6.1348" y2="1082.8066" gradientTransform="matrix(64.819 0 0 -64.819 139.3125 70502.4688)">
			<stop  offset="0" style="stop-color:#5140F2"/>
			<stop  offset="1" style="stop-color:#291771"/>
		</linearGradient>
		<rect x="33.136" y="8.117" clip-path="url(#SVGID_25_)" fill="url(#SVGID_26_)" width="503.872" height="615.945"/>
	</g>
	<g>
		<defs>
			<polygon id="SVGID_27_" points="329.647,8.117 830.285,1074.021 1044.836,1074.021 544.203,8.117 			"/>
		</defs>
		<clipPath id="SVGID_28_">
			<use xlink:href="#SVGID_27_"  overflow="visible"/>
		</clipPath>
		
			<linearGradient id="SVGID_29_" gradientUnits="userSpaceOnUse" x1="1.6543" y1="1079.8467" x2="9.4277" y2="1079.8467" gradientTransform="matrix(92.0055 0 0 -92.0055 177.4375 99892.9063)">
			<stop  offset="0" style="stop-color:#5140F2"/>
			<stop  offset="1" style="stop-color:#5140F2"/>
		</linearGradient>
		<rect x="329.647" y="8.117" clip-path="url(#SVGID_28_)" fill="url(#SVGID_29_)" width="715.189" height="1065.903"/>
	</g>
	<g>
		<defs>
			<polygon id="SVGID_30_" points="627.897,1074.021 851.009,1074.021 1044.836,816.072 976.545,649.006 			"/>
		</defs>
		<clipPath id="SVGID_31_">
			<use xlink:href="#SVGID_30_"  overflow="visible"/>
		</clipPath>
		
			<linearGradient id="SVGID_32_" gradientUnits="userSpaceOnUse" x1="7.6821" y1="1074.5313" x2="15.4556" y2="1074.5313" gradientTransform="matrix(53.6373 0 0 -53.6373 215.8438 58496.4531)">
			<stop  offset="0" style="stop-color:#5140F2"/>
			<stop  offset="1" style="stop-color:#2929A3"/>
		</linearGradient>
		<rect x="627.897" y="649.006" clip-path="url(#SVGID_31_)" fill="url(#SVGID_32_)" width="416.938" height="425.015"/>
	</g>
</g>
</svg>
