<?xml version="1.0" encoding="utf-8"?>
<!-- Generator: Adobe Illustrator 16.0.0, SVG Export Plug-In . SVG Version: 6.00 Build 0)  -->
<!DOCTYPE svg PUBLIC "-//W3C//DTD SVG 1.1//EN" "http://www.w3.org/Graphics/SVG/1.1/DTD/svg11.dtd">
<svg version="1.1" xmlns="http://www.w3.org/2000/svg" xmlns:xlink="http://www.w3.org/1999/xlink" x="0px" y="0px" width="1080px"
	 height="1080px" viewBox="0 0 1080 1080" enable-background="new 0 0 1080 1080" xml:space="preserve">
<g id="Layer_1">
	<g>
		<defs>
			<polygon id="SVGID_1_" points="188.896,606.72 61.179,606.72 72.824,579.409 188.896,579.409 			"/>
		</defs>
		<clipPath id="SVGID_2_">
			<use xlink:href="#SVGID_1_"  overflow="visible"/>
		</clipPath>
		
			<linearGradient id="SVGID_3_" gradientUnits="userSpaceOnUse" x1="-0.9224" y1="1079.917" x2="0.3486" y2="1079.917" gradientTransform="matrix(100.5026 0 0 -100.5026 153.875 109127.5547)">
			<stop  offset="0" style="stop-color:#5140F2"/>
			<stop  offset="1" style="stop-color:#291771"/>
		</linearGradient>
		<rect x="61.179" y="579.409" clip-path="url(#SVGID_2_)" fill="url(#SVGID_3_)" width="127.716" height="27.311"/>
	</g>
	<g>
		<defs>
			<polygon id="SVGID_4_" points="208.057,564.549 95.687,564.549 108.84,537.239 196.895,537.239 			"/>
		</defs>
		<clipPath id="SVGID_5_">
			<use xlink:href="#SVGID_4_"  overflow="visible"/>
		</clipPath>
		
			<linearGradient id="SVGID_6_" gradientUnits="userSpaceOnUse" x1="-0.9653" y1="1080.0088" x2="0.3057" y2="1080.0088" gradientTransform="matrix(88.4269 0 0 -88.4269 181.0625 96052.6484)">
			<stop  offset="0" style="stop-color:#5140F2"/>
			<stop  offset="1" style="stop-color:#291771"/>
		</linearGradient>
		<rect x="95.687" y="537.239" clip-path="url(#SVGID_5_)" fill="url(#SVGID_6_)" width="112.37" height="27.31"/>
	</g>
	<g>
		<defs>
			<rect id="SVGID_7_" x="-134.376" y="-150.055" width="1372.432" height="1372.431"/>
		</defs>
		<clipPath id="SVGID_8_">
			<use xlink:href="#SVGID_7_"  overflow="visible"/>
		</clipPath>
		<path clip-path="url(#SVGID_8_)" fill="#5140F2" d="M286.299,609.313c-11.25,0-21.586-1.343-31.014-4.021
			c-9.434-2.682-17.351-6.444-23.749-11.29l9.085-21.803c6.573,4.502,13.839,7.962,21.799,10.382
			c7.958,2.427,16.003,3.634,24.137,3.634c8.65,0,15.095-1.469,19.336-4.411c4.237-2.941,6.359-6.92,6.359-11.939
			c0-3.979-1.343-7.138-4.023-9.474c-2.684-2.336-6.968-4.106-12.848-5.32l-25.952-4.931c-11.075-2.421-19.51-6.574-25.305-12.458
			c-5.8-5.881-8.695-13.583-8.695-23.099c0-8.129,2.206-15.314,6.618-21.542c4.411-6.228,10.725-11.115,18.946-14.664
			c8.216-3.544,17.863-5.322,28.938-5.322c9.688,0,18.817,1.299,27.382,3.894c8.565,2.596,15.787,6.488,21.671,11.68l-9.344,21.022
			c-5.364-4.324-11.507-7.695-18.428-10.123c-6.921-2.42-13.669-3.632-20.243-3.632c-8.998,0-15.572,1.601-19.726,4.8
			c-4.151,3.204-6.228,7.312-6.228,12.331c0,3.807,1.251,6.966,3.762,9.472c2.507,2.509,6.445,4.372,11.809,5.58l25.955,4.931
			c11.59,2.251,20.373,6.188,26.342,11.808c5.969,5.624,8.953,13.281,8.953,22.969c0,8.654-2.335,16.092-7.007,22.32
			c-4.671,6.229-11.159,10.99-19.465,14.274C307.062,607.667,297.37,609.313,286.299,609.313"/>
		<path clip-path="url(#SVGID_8_)" fill="#5140F2" d="M424.373,609.313c-15.572,0-27.341-4.064-35.295-12.198
			c-7.962-8.131-11.94-20.328-11.94-36.595V500.05h-25.174v-24.398h25.174v-33.48l32.441-8.305v41.785h35.04v24.398h-35.04v58.395
			c0,8.999,1.729,15.313,5.19,18.946s8.218,5.451,14.277,5.451c3.285,0,6.099-0.261,8.434-0.779c2.336-0.52,4.627-1.21,6.879-2.078
			v25.696c-2.946,1.208-6.19,2.116-9.734,2.725C431.076,609.01,427.658,609.313,424.373,609.313"/>
		<path clip-path="url(#SVGID_8_)" fill="#5140F2" d="M466.417,606.719v-97.585c0-5.536-0.129-11.161-0.389-16.87
			c-0.259-5.71-0.738-11.246-1.427-16.611h31.404l3.634,35.817h-5.191c1.727-8.65,4.626-15.833,8.693-21.543
			c4.065-5.709,9.041-9.945,14.925-12.716c5.88-2.766,12.283-4.154,19.205-4.154c3.115,0,5.622,0.131,7.527,0.391
			c1.901,0.259,3.804,0.739,5.71,1.427l-0.26,28.55c-3.288-1.383-6.1-2.248-8.436-2.596c-2.335-0.346-5.235-0.519-8.695-0.519
			c-7.441,0-13.715,1.557-18.815,4.67c-5.106,3.116-8.913,7.444-11.42,12.977c-2.508,5.542-3.763,11.854-3.763,18.948v69.816
			H466.417z"/>
		<path clip-path="url(#SVGID_8_)" fill="#5140F2" d="M617.988,609.313c-11.42,0-21.456-2.725-30.107-8.176
			c-8.653-5.45-15.401-13.276-20.244-23.488c-4.846-10.206-7.268-22.405-7.268-36.595c0-14.184,2.422-26.342,7.268-36.464
			c4.843-10.123,11.591-17.909,20.244-23.359c8.651-5.451,18.688-8.175,30.107-8.175c11.068,0,20.803,2.725,29.196,8.175
			c8.391,5.45,13.97,12.762,16.74,21.931h-2.854l2.854-27.51h31.146c-0.52,5.363-0.997,10.815-1.427,16.35
			c-0.435,5.539-0.649,10.989-0.649,16.351v98.365h-32.183l-0.26-26.992h3.114c-2.771,8.998-8.395,16.18-16.871,21.541
			C638.317,606.633,628.714,609.313,617.988,609.313 M627.072,584.397c10.206,0,18.428-3.589,24.654-10.771
			c6.229-7.178,9.345-18.038,9.345-32.572c0-14.533-3.115-25.344-9.345-32.441c-6.227-7.094-14.448-10.642-24.654-10.642
			c-10.213,0-18.428,3.548-24.657,10.642c-6.23,7.097-9.344,17.908-9.344,32.441c0,14.534,3.068,25.395,9.213,32.572
			C608.425,580.809,616.688,584.397,627.072,584.397"/>
		<path clip-path="url(#SVGID_8_)" fill="#5140F2" d="M784.349,609.313c-15.571,0-27.342-4.064-35.297-12.198
			c-7.962-8.131-11.939-20.328-11.939-36.595V500.05h-25.174v-24.398h25.174v-33.48l32.442-8.305v41.785h35.039v24.398h-35.039
			v58.395c0,8.999,1.729,15.313,5.191,18.946c3.458,3.634,8.215,5.451,14.273,5.451c3.286,0,6.101-0.261,8.435-0.779
			c2.335-0.52,4.628-1.21,6.88-2.078v25.696c-2.946,1.208-6.19,2.116-9.733,2.725C791.051,609.01,787.634,609.313,784.349,609.313"
			/>
		<path clip-path="url(#SVGID_8_)" fill="#5140F2" d="M875.447,609.313c-15.574,0-27.343-4.064-35.298-12.198
			c-7.962-8.131-11.939-20.328-11.939-36.595V500.05h-25.174v-24.398h25.174v-33.48l32.441-8.305v41.785h35.04v24.398h-35.04v58.395
			c0,8.999,1.729,15.313,5.192,18.946c3.457,3.634,8.214,5.451,14.273,5.451c3.285,0,6.1-0.261,8.434-0.779
			c2.336-0.52,4.628-1.21,6.879-2.078v25.696c-2.943,1.208-6.188,2.116-9.732,2.725C882.148,609.01,878.73,609.313,875.447,609.313"
			/>
		<path clip-path="url(#SVGID_8_)" fill="#5140F2" d="M968.358,609.313c-11.42,0-21.454-2.725-30.107-8.176
			c-8.651-5.45-15.401-13.276-20.242-23.488c-4.846-10.206-7.266-22.405-7.266-36.595c0-14.184,2.42-26.342,7.266-36.464
			c4.841-10.123,11.591-17.909,20.242-23.359c8.653-5.451,18.688-8.175,30.107-8.175c11.07,0,20.805,2.725,29.196,8.175
			c8.394,5.45,13.972,12.762,16.743,21.931h-2.854l2.854-27.51h31.144c-0.52,5.363-0.998,10.815-1.428,16.35
			c-0.434,5.539-0.65,10.989-0.65,16.351v98.365h-32.18l-0.26-26.992h3.115c-2.771,8.998-8.397,16.18-16.872,21.541
			C988.688,606.633,979.087,609.313,968.358,609.313 M977.443,584.397c10.206,0,18.426-3.589,24.654-10.771
			c6.23-7.178,9.346-18.038,9.346-32.572c0-14.533-3.115-25.344-9.346-32.441c-6.229-7.094-14.448-10.642-24.654-10.642
			c-10.211,0-18.429,3.548-24.656,10.642c-6.229,7.097-9.344,17.908-9.344,32.441c0,14.534,3.069,25.395,9.215,32.572
			C958.797,580.809,967.062,584.397,977.443,584.397"/>
		<path clip-path="url(#SVGID_8_)" fill="#595959" d="M816.424,669.162l20.38-46.197h4.72l20.706,46.197h-5.634l-5.768-13.171
			l2.425,1.376H825.01l2.622-1.376l-5.638,13.171H816.424z M839.098,629.189l-10.614,24.901l-1.575-1.179h24.379l-1.18,1.179
			l-10.878-24.901H839.098z"/>
		<path clip-path="url(#SVGID_8_)" fill="#595959" d="M882.741,683.777c-2.839,0-5.462-0.35-7.863-1.048
			c-2.402-0.701-4.564-1.771-6.488-3.214l1.573-3.996c1.354,0.961,2.688,1.726,3.997,2.295c1.311,0.567,2.666,0.991,4.063,1.277
			c1.397,0.283,2.883,0.424,4.457,0.424c3.23,0,5.678-0.851,7.337-2.555c1.66-1.703,2.49-4.129,2.49-7.272v-9.635h0.655
			c-0.697,2.579-2.14,4.62-4.324,6.129c-2.186,1.508-4.741,2.259-7.665,2.259c-3.017,0-5.626-0.664-7.833-1.998
			c-2.207-1.332-3.911-3.232-5.11-5.701c-1.202-2.468-1.803-5.382-1.803-8.748c0-3.32,0.601-6.203,1.803-8.649
			c1.199-2.445,2.903-4.335,5.11-5.669c2.207-1.331,4.816-1.998,7.833-1.998c2.969,0,5.536,0.743,7.697,2.228
			c2.162,1.484,3.595,3.538,4.292,6.16l-0.655-0.656l0.591-7.143h5.178c-0.175,1.269-0.309,2.545-0.394,3.834
			c-0.088,1.289-0.132,2.546-0.132,3.77v25.097c0,4.893-1.256,8.583-3.768,11.074C891.27,682.531,887.591,683.777,882.741,683.777
			 M881.954,664.117c3.19,0,5.701-1.059,7.538-3.178c1.833-2.118,2.752-5.1,2.752-8.945c0-3.842-0.919-6.813-2.752-8.911
			c-1.837-2.098-4.348-3.147-7.538-3.147c-3.145,0-5.656,1.05-7.534,3.147c-1.88,2.098-2.817,5.069-2.817,8.911
			c0,3.846,0.938,6.827,2.817,8.945C876.298,663.059,878.81,664.117,881.954,664.117"/>
		<path clip-path="url(#SVGID_8_)" fill="#595959" d="M922.386,669.753c-5.155,0-9.218-1.496-12.188-4.49
			c-2.973-2.991-4.457-7.152-4.457-12.48c0-3.452,0.656-6.456,1.966-9.012c1.311-2.556,3.148-4.543,5.506-5.963
			c2.36-1.419,5.068-2.129,8.126-2.129c3.014,0,5.547,0.634,7.601,1.898c2.053,1.27,3.626,3.069,4.719,5.409
			c1.091,2.335,1.637,5.099,1.637,8.287v1.967h-25.49v-3.342h22.02l-1.114,0.851c0-3.494-0.787-6.225-2.359-8.191
			c-1.573-1.966-3.911-2.949-7.012-2.949c-3.276,0-5.832,1.146-7.668,3.44c-1.834,2.295-2.752,5.386-2.752,9.272v0.591
			c0,4.106,1.016,7.219,3.047,9.337c2.032,2.121,4.883,3.179,8.553,3.179c1.965,0,3.811-0.295,5.537-0.884
			c1.724-0.589,3.372-1.562,4.947-2.916l1.835,3.735c-1.441,1.398-3.267,2.479-5.474,3.243
			C927.159,669.37,924.833,669.753,922.386,669.753"/>
		<path clip-path="url(#SVGID_8_)" fill="#595959" d="M943.421,669.162V643.87c0-1.225-0.055-2.479-0.164-3.77
			c-0.109-1.289-0.229-2.565-0.358-3.834h5.11l0.656,7.209h-0.787c0.96-2.534,2.501-4.466,4.621-5.8
			c2.117-1.332,4.573-1.998,7.37-1.998c3.89,0,6.825,1.038,8.815,3.112c1.986,2.075,2.98,5.341,2.98,9.796v20.576h-5.309v-20.247
			c0-3.103-0.621-5.362-1.868-6.783c-1.243-1.418-3.179-2.129-5.797-2.129c-3.061,0-5.484,0.938-7.275,2.819
			c-1.79,1.877-2.686,4.39-2.686,7.533v18.807H943.421z"/>
		<path clip-path="url(#SVGID_8_)" fill="#595959" d="M995.648,669.753c-3.233,0-6.039-0.697-8.421-2.095
			c-2.382-1.398-4.215-3.386-5.503-5.967c-1.29-2.575-1.934-5.636-1.934-9.173c0-3.58,0.654-6.629,1.965-9.142
			c1.312-2.51,3.157-4.422,5.539-5.733c2.379-1.311,5.164-1.965,8.354-1.965c2.096,0,4.14,0.372,6.126,1.114
			c1.989,0.742,3.639,1.789,4.95,3.143l-1.901,3.802c-1.311-1.267-2.741-2.204-4.291-2.816c-1.554-0.611-3.07-0.918-4.555-0.918
			c-3.409,0-6.053,1.07-7.93,3.21c-1.88,2.142-2.816,5.266-2.816,9.372c0,4.063,0.937,7.208,2.816,9.436
			c1.877,2.229,4.521,3.343,7.93,3.343c1.44,0,2.937-0.285,4.487-0.853c1.552-0.567,3.003-1.507,4.358-2.819l1.901,3.736
			c-1.357,1.398-3.038,2.469-5.048,3.211C999.666,669.381,997.656,669.753,995.648,669.753"/>
		<path clip-path="url(#SVGID_8_)" fill="#595959" d="M1013.211,684.039l-1.245-4.391c2.053-0.482,3.767-1.039,5.144-1.671
			c1.376-0.634,2.524-1.476,3.439-2.523c0.92-1.048,1.703-2.358,2.359-3.932l1.704-3.866l-0.13,2.229l-14.353-33.618h5.766
			l11.861,28.899h-1.704l11.732-28.899h5.57l-15.203,35.648c-0.876,2.098-1.836,3.855-2.885,5.275
			c-1.05,1.419-2.173,2.578-3.375,3.475c-1.201,0.895-2.521,1.605-3.963,2.13C1016.485,683.318,1014.915,683.732,1013.211,684.039"
			/>
	</g>
	<g>
		<defs>
			<polygon id="SVGID_9_" points="89.962,432.468 42.667,533.163 77.742,533.163 125.038,432.468 			"/>
		</defs>
		<clipPath id="SVGID_10_">
			<use xlink:href="#SVGID_9_"  overflow="visible"/>
		</clipPath>
		
			<linearGradient id="SVGID_11_" gradientUnits="userSpaceOnUse" x1="-1.4917" y1="1080.2344" x2="-0.2207" y2="1080.2344" gradientTransform="matrix(64.819 0 0 -64.819 139.3125 70502.4688)">
			<stop  offset="0" style="stop-color:#5140F2"/>
			<stop  offset="1" style="stop-color:#291771"/>
		</linearGradient>
		<rect x="42.667" y="432.468" clip-path="url(#SVGID_10_)" fill="url(#SVGID_11_)" width="82.371" height="100.695"/>
	</g>
	<g>
		<defs>
			<polygon id="SVGID_12_" points="91.14,432.468 172.982,606.72 208.057,606.72 126.214,432.468 			"/>
		</defs>
		<clipPath id="SVGID_13_">
			<use xlink:href="#SVGID_12_"  overflow="visible"/>
		</clipPath>
		
			<linearGradient id="SVGID_14_" gradientUnits="userSpaceOnUse" x1="-0.938" y1="1080.0801" x2="0.3325" y2="1080.0801" gradientTransform="matrix(92.0055 0 0 -92.0055 177.4375 99892.9063)">
			<stop  offset="0" style="stop-color:#5140F2"/>
			<stop  offset="1" style="stop-color:#5140F2"/>
		</linearGradient>
		<rect x="91.14" y="432.468" clip-path="url(#SVGID_13_)" fill="url(#SVGID_14_)" width="116.917" height="174.252"/>
	</g>
	<g>
		<defs>
			<polygon id="SVGID_15_" points="139.897,606.72 176.37,606.72 208.057,564.55 196.894,537.24 			"/>
		</defs>
		<clipPath id="SVGID_16_">
			<use xlink:href="#SVGID_15_"  overflow="visible"/>
		</clipPath>
		
			<linearGradient id="SVGID_17_" gradientUnits="userSpaceOnUse" x1="-1.416" y1="1079.9297" x2="-0.145" y2="1079.9297" gradientTransform="matrix(53.6373 0 0 -53.6373 215.8438 58496.4531)">
			<stop  offset="0" style="stop-color:#5140F2"/>
			<stop  offset="1" style="stop-color:#2929A3"/>
		</linearGradient>
		<rect x="139.897" y="537.24" clip-path="url(#SVGID_16_)" fill="url(#SVGID_17_)" width="68.16" height="69.479"/>
	</g>
</g>
<g id="Layer_2" display="none">
	<g display="inline">
		<defs>
			<polygon id="SVGID_18_" points="927.621,1074.021 146.381,1074.021 217.609,906.955 927.621,906.955 			"/>
		</defs>
		<clipPath id="SVGID_19_">
			<use xlink:href="#SVGID_18_"  overflow="visible"/>
		</clipPath>
		
			<linearGradient id="SVGID_20_" gradientUnits="userSpaceOnUse" x1="-0.0747" y1="1075.9629" x2="7.6987" y2="1075.9629" gradientTransform="matrix(100.5026 0 0 -100.5026 153.875 109127.5547)">
			<stop  offset="0" style="stop-color:#5140F2"/>
			<stop  offset="1" style="stop-color:#291771"/>
		</linearGradient>
		<rect x="146.381" y="906.955" clip-path="url(#SVGID_19_)" fill="url(#SVGID_20_)" width="781.24" height="167.065"/>
	</g>
	<g display="inline">
		<defs>
			<polygon id="SVGID_21_" points="1044.836,816.06 357.461,816.06 437.928,649.006 976.559,649.006 			"/>
		</defs>
		<clipPath id="SVGID_22_">
			<use xlink:href="#SVGID_21_"  overflow="visible"/>
		</clipPath>
		
			<linearGradient id="SVGID_23_" gradientUnits="userSpaceOnUse" x1="1.9951" y1="1077.9551" x2="9.7686" y2="1077.9551" gradientTransform="matrix(88.4269 0 0 -88.4269 181.0625 96052.6484)">
			<stop  offset="0" style="stop-color:#5140F2"/>
			<stop  offset="1" style="stop-color:#291771"/>
		</linearGradient>
		<rect x="357.461" y="649.006" clip-path="url(#SVGID_22_)" fill="url(#SVGID_23_)" width="687.375" height="167.054"/>
	</g>
	<g display="inline">
		<defs>
			<polygon id="SVGID_24_" points="322.443,8.117 33.136,624.063 247.693,624.063 537.008,8.117 			"/>
		</defs>
		<clipPath id="SVGID_25_">
			<use xlink:href="#SVGID_24_"  overflow="visible"/>
		</clipPath>
		
			<linearGradient id="SVGID_26_" gradientUnits="userSpaceOnUse" x1="-1.6387" y1="1082.8066" x2="6.1348" y2="1082.8066" gradientTransform="matrix(64.819 0 0 -64.819 139.3125 70502.4688)">
			<stop  offset="0" style="stop-color:#5140F2"/>
			<stop  offset="1" style="stop-color:#291771"/>
		</linearGradient>
		<rect x="33.136" y="8.117" clip-path="url(#SVGID_25_)" fill="url(#SVGID_26_)" width="503.872" height="615.945"/>
	</g>
	<g display="inline">
		<defs>
			<polygon id="SVGID_27_" points="329.647,8.117 830.285,1074.021 1044.836,1074.021 544.203,8.117 			"/>
		</defs>
		<clipPath id="SVGID_28_">
			<use xlink:href="#SVGID_27_"  overflow="visible"/>
		</clipPath>
		
			<linearGradient id="SVGID_29_" gradientUnits="userSpaceOnUse" x1="1.6543" y1="1079.8467" x2="9.4277" y2="1079.8467" gradientTransform="matrix(92.0055 0 0 -92.0055 177.4375 99892.9063)">
			<stop  offset="0" style="stop-color:#5140F2"/>
			<stop  offset="1" style="stop-color:#5140F2"/>
		</linearGradient>
		<rect x="329.647" y="8.117" clip-path="url(#SVGID_28_)" fill="url(#SVGID_29_)" width="715.189" height="1065.903"/>
	</g>
	<g display="inline">
		<defs>
			<polygon id="SVGID_30_" points="627.897,1074.021 851.009,1074.021 1044.836,816.072 976.545,649.006 			"/>
		</defs>
		<clipPath id="SVGID_31_">
			<use xlink:href="#SVGID_30_"  overflow="visible"/>
		</clipPath>
		
			<linearGradient id="SVGID_32_" gradientUnits="userSpaceOnUse" x1="7.6821" y1="1074.5313" x2="15.4556" y2="1074.5313" gradientTransform="matrix(53.6373 0 0 -53.6373 215.8438 58496.4531)">
			<stop  offset="0" style="stop-color:#5140F2"/>
			<stop  offset="1" style="stop-color:#2929A3"/>
		</linearGradient>
		<rect x="627.897" y="649.006" clip-path="url(#SVGID_31_)" fill="url(#SVGID_32_)" width="416.938" height="425.015"/>
	</g>
</g>
</svg>
